<svg width="118" height="94" viewBox="0 0 118 94" fill="none" xmlns="http://www.w3.org/2000/svg">
<g clip-path="url(#clip0_23_7)">
<path d="M55.0255 73.3195C56.0848 74.4109 56.672 75.8747 56.6602 77.3948C56.6485 78.915 56.0387 80.3695 54.9627 81.4444C53.8866 82.5194 52.4306 83.1284 50.9089 83.1402C49.3871 83.1519 47.9218 82.5654 46.8293 81.5072L7.21592 41.9352C4.87751 39.6001 3.03376 36.8184 1.79462 33.7561C0.555478 30.6938 -0.0536979 27.4136 0.00343259 24.1111C0.060563 20.8086 0.782851 17.5514 2.12717 14.5337C3.47149 11.516 5.41033 8.79968 7.82811 6.5466C17.5581 -2.5421 32.8401 -2.06066 42.2607 7.35007L77.5659 42.6184C79.7393 44.79 80.9603 47.7351 80.9603 50.806C80.9603 53.8768 79.7393 56.8219 77.5659 58.9936L33.9961 15.4694C29.0692 10.5477 21.0879 10.1866 15.9136 14.8481C14.5948 16.0296 13.5311 17.4675 12.7876 19.0738C12.0441 20.68 11.6364 22.4209 11.5894 24.19C11.5425 25.959 11.8573 27.7191 12.5146 29.3624C13.1719 31.0058 14.1578 32.4979 15.4121 33.7476L55.0255 73.3195Z" fill="url(#paint0_linear_23_7)"/>
<path d="M110.175 87.4583C100.458 96.547 85.1533 96.0656 75.7425 86.6549L40.4373 51.3866C38.2639 49.2149 37.0429 46.2698 37.0429 43.1989C37.0429 40.1281 38.2639 37.183 40.4373 35.0113L84.0039 78.5355C88.9339 83.4572 96.9153 83.8183 102.09 79.1568C103.406 77.974 104.468 76.5357 105.21 74.9295C105.952 73.3234 106.359 71.5831 106.406 69.8147C106.453 68.0464 106.139 66.287 105.483 64.6438C104.827 63.0007 103.843 61.5082 102.591 60.2573L62.9777 20.6854C61.9184 19.594 61.3312 18.1302 61.343 16.6101C61.3547 15.0899 61.9644 13.6354 63.0405 12.5605C64.1165 11.4856 65.5726 10.8765 67.0943 10.8647C68.616 10.853 70.0813 11.4395 71.1739 12.4977L110.787 52.0697C113.125 54.4051 114.969 57.1868 116.208 60.2491C117.446 63.3113 118.055 66.5914 117.998 69.8938C117.941 73.1962 117.219 76.4532 115.875 79.4709C114.531 82.4885 112.592 85.205 110.175 87.4583Z" fill="url(#paint1_linear_23_7)"/>
</g>
<defs>
<linearGradient id="paint0_linear_23_7" x1="6.93585" y1="6.85888" x2="98.6587" y2="98.6779" gradientUnits="userSpaceOnUse">
<stop stop-color="white"/>
<stop offset="0.93" stop-color="white"/>
</linearGradient>
<linearGradient id="paint1_linear_23_7" x1="23.4196" y1="-0.409893" x2="109.131" y2="85.3914" gradientUnits="userSpaceOnUse">
<stop offset="0.07" stop-color="white"/>
<stop offset="1" stop-color="white"/>
</linearGradient>
<clipPath id="clip0_23_7">
<rect width="118" height="94" fill="white"/>
</clipPath>
</defs>
</svg>
