<svg xmlns="http://www.w3.org/2000/svg" viewBox="0 0 1026 1026"><defs><style>.cls-1{fill:#fdc54b;}.cls-2{fill:#fff;}</style></defs><g id="FOND"><circle class="cls-1" cx="513" cy="513" r="513"/></g><g id="TRACE"><path class="cls-2" d="M973.4,364H662V53.54Q652.57,53,643,53C460.19,53,312,201.19,312,384S460.19,715,643,715,974,566.81,974,384C974,377.29,973.8,370.61,973.4,364ZM643,693c-170.66,0-309-138.34-309-309S472.34,75,643,75V384H952C952,554.66,813.66,693,643,693Z" transform="translate(-155 152)"/><path class="cls-2" d="M1024.38,311.68C1014.27,144.62,880.24,11,713,1.54Q703.57,1,694,1V332h331Q1025,321.77,1024.38,311.68Zm-311.38,0V23.58c155.08,9.4,279.28,133.19,289.34,288.1Z" transform="translate(-155 152)"/></g></svg>